<svg width="100" height="100" viewBox="0 0 100 100" xmlns="http://www.w3.org/2000/svg">
  <defs>
    <linearGradient id="sunGradient" x1="0%" y1="0%" x2="100%" y2="100%">
      <stop offset="0%" style="stop-color:#FFD700;stop-opacity:1" />
      <stop offset="100%" style="stop-color:#FFA500;stop-opacity:1" />
    </linearGradient>
    <filter id="shadow" x="-20%" y="-20%" width="140%" height="140%">
      <feGaussianBlur in="SourceAlpha" stdDeviation="3"/>
      <feOffset dx="2" dy="2" result="offsetblur"/>
      <feComponentTransfer>
        <feFuncA type="linear" slope="0.5"/>
      </feComponentTransfer>
      <feMerge>
        <feMergeNode/>
        <feMergeNode in="SourceGraphic"/>
      </feMerge>
    </filter>
  </defs>
  <g filter="url(#shadow)">
    <path d="M75 50C75 63.8071 63.8071 75 50 75C36.1929 75 25 63.8071 25 50C25 36.1929 36.1929 25 50 25C63.8071 25 75 36.1929 75 50Z" fill="url(#sunGradient)"/>
    <path d="M60 25C55 15, 45 15, 40 25" fill="none" stroke="#FFC400" stroke-width="5" stroke-linecap="round"/>
    <path d="M75 40C85 45, 85 55, 75 60" fill="none" stroke="#FFC400" stroke-width="5" stroke-linecap="round"/>
    <path d="M40 75C45 85, 55 85, 60 75" fill="none" stroke="#FFC400" stroke-width="5" stroke-linecap="round"/>
    <path d="M25 60C15 55, 15 45, 25 40" fill="none" stroke="#FFC400" stroke-width="5" stroke-linecap="round"/>
  </g>
  <path d="M30 70 H70 A20 20 0 1 1 70 30 H30 A20 20 0 1 0 30 70 Z" fill="#FFFFFF" stroke="#E0E0E0" stroke-width="2" transform="translate(15, -10)"/>
</svg>
